<svg xmlns="http://www.w3.org/2000/svg" viewBox="0 0 200 200" role="img" aria-label="Al-Quran Education">
  <g transform="translate(9,-19)">
    <path fill="#cfba36" d="M91.03,183.3L91.03,183.3L91.03,183.3L91.03,183.3L91.03,183.3ZM46.64,146.93C50.53,146.16 53.31,145.71 53.31,145.71L46.64,148.55L37.42,152.46L35.65,152.76C38.5,152.95 41.77,153.55 45.4,154.8C45.8,154.94 46.21,155.09 46.64,155.26C47.11,155.44 47.59,155.64 48.09,155.86C50.05,156.71 52.24,157.81 54.55,159.08C60.51,162.34 67.32,166.7 73.43,170.83C79.65,175.03 85.15,178.99 88.28,181.27L88.89,172.75L90.11,155.86L90.24,154.05C89.78,153.91 89.15,153.71 88.36,153.46C86.79,152.97 84.63,152.31 82.13,151.58C79.5,150.81 76.5,149.96 73.43,149.15C66.29,147.27 58.76,145.61 54.55,145.65C54.1,145.65 53.68,145.67 53.31,145.71C53.31,145.71 53.69,145.49 54.55,145.23C56.44,144.65 60.61,143.92 68.05,145.05C69.83,145.32 71.64,145.69 73.43,146.12C76.5,146.85 79.5,147.76 82.13,148.64C86.05,149.95 89.14,151.2 90.4,151.73L90.41,151.71L91.03,151.71L91.66,151.71L91.66,151.73C93.04,151.15 96.58,149.72 101,148.29C103.68,147.42 106.67,146.55 109.7,145.87C111.14,145.55 112.59,145.27 114.01,145.05C123.54,143.6 127.71,145.21 128.58,145.62C128.7,145.68 128.75,145.71 128.75,145.71C128.7,145.71 128.63,145.71 128.58,145.7C128.16,145.66 127.7,145.64 127.19,145.64C123.14,145.69 116.33,147.16 109.7,148.87C106.67,149.66 103.67,150.49 101,151.27C96.75,152.5 93.31,153.58 91.83,154.05L91.96,155.86L93.17,172.75L93.78,181.22C97.09,178.74 103.04,174.34 109.7,169.76C115.9,165.49 122.71,161.07 128.58,157.89C129.96,157.14 131.29,156.46 132.55,155.86C133.73,155.3 134.84,154.82 135.88,154.43C136.14,154.33 136.41,154.23 136.66,154.14C139.48,153.17 142.06,152.62 144.41,152.36L135.88,148.74L128.75,145.71C128.75,145.71 131.75,146.2 135.88,147.02C144.39,148.7 157.69,151.79 159.36,154.93L128.58,169.58L110.36,178.25L91.03,187.45L71.7,178.25L54.55,170.09L22.7,154.93C24.4,151.73 38.15,148.59 46.64,146.93Z"/>
    <path fill="#116410" d="M91.26,75.91C91.26,75.91 49.35,81.72 39.99,92.93C39.99,92.93 38.32,74.67 57.82,63.33C81.55,49.54 91.26,38.64 91.26,38.64C91.26,38.64 100.96,49.54 124.69,63.33C144.2,74.67 142.52,92.93 142.52,92.93C133.49,82.11 91.26,75.91 91.26,75.91Z"/>
    <path fill="#116410" d="M51.02,138.73C50.08,138.89 48.54,139.16 46.64,139.52L46.64,99.13C46.64,90.27 91.26,83.08 91.26,83.08C91.26,83.08 135.88,90.27 135.88,99.13L135.88,139.6C133.76,139.2 132.06,138.9 131.04,138.73C130.38,138.47 129.56,138.21 128.58,137.98L128.58,109.27C128.58,109.26 128.57,109.24 128.57,109.23C128.58,109.24 128.6,109.26 128.61,109.27C128.61,109.27 128.92,105.34 125.32,102.9C120.93,99.93 119.14,97.58 119.14,97.58C119.14,97.58 117.35,99.93 112.96,102.9C109.36,105.34 109.67,109.27 109.67,109.27C109.68,109.26 109.7,109.24 109.71,109.23C109.71,109.24 109.7,109.26 109.7,109.27L109.7,138.43C106.72,139.03 103.75,139.82 101,140.65L101,103.76C101,103.75 101,103.74 101,103.72C101.01,103.74 101.03,103.75 101.03,103.76C101.03,103.76 101.34,99.83 97.74,97.39C93.36,94.42 91.57,92.07 91.57,92.07C91.57,92.07 89.77,94.42 85.39,97.39C81.79,99.83 82.09,103.76 82.09,103.76C82.1,103.75 82.12,103.74 82.13,103.72C82.13,103.74 82.13,103.75 82.13,103.76L82.13,140.98C79.41,140.13 76.44,139.31 73.43,138.66L73.43,109.27C73.43,109.26 73.42,109.24 73.42,109.23C73.43,109.24 73.45,109.26 73.46,109.27C73.46,109.27 73.77,105.34 70.17,102.9C65.78,99.93 63.99,97.58 63.99,97.58C63.99,97.58 62.2,99.93 57.81,102.9C54.21,105.34 54.52,109.27 54.52,109.27C54.53,109.26 54.55,109.24 54.56,109.23C54.56,109.24 54.55,109.26 54.55,109.27L54.55,137.75C53.08,138.03 51.9,138.39 51.02,138.73Z"/>
    <path fill="#116410" d="M25.53,104.35C25.53,104.35 16.67,105.58 14.69,107.95C14.69,107.95 14.34,102.55 18.46,100.16C23.48,97.24 25.53,94.94 25.53,94.94C25.53,94.94 27.58,97.24 32.6,100.16C36.72,102.55 36.36,107.95 36.36,107.95C34.46,105.66 25.53,104.35 25.53,104.35Z"/>
    <path fill="#116410" d="M34.96,113.67L34.96,142.04C26.92,144.01 21.22,146.01 17.89,149.07L16.1,149.07L16.1,113.67C16.1,111.8 25.53,110.28 25.53,110.28C25.53,110.28 34.96,111.8 34.96,113.67Z"/>
    <path fill="#116410" d="M156.54,104.35C156.54,104.35 147.61,105.66 145.7,107.95C145.7,107.95 145.35,102.55 149.47,100.16C154.48,97.24 156.54,94.94 156.54,94.94C156.54,94.94 158.59,97.24 163.6,100.16C167.73,102.55 167.37,107.95 167.37,107.95C165.4,105.58 156.54,104.35 156.54,104.35Z"/>
    <path fill="#116410" d="M165.97,113.67L165.97,149.07L164.18,149.07C160.84,146.01 155.14,144.01 147.1,142.04L147.1,113.67C147.1,111.8 156.54,110.28 156.54,110.28C156.54,110.28 165.97,111.8 165.97,113.67Z"/>
    <path fill="#116410" d="M53.7,179.3L91.03,194.97L128.35,179.3L180.63,157.35L180.63,157.35C179.47,165.43 173.82,172.16 166.06,174.69L91.03,199.24L16,174.69C8.24,172.16 2.59,165.43 1.44,157.35L53.7,179.3Z"/>
  </g>
</svg>
